# xmcd CD database file
#
# Track frame offsets:
#	150
#	13951
#	37867
#	70536
#	82908
#	95455
#	108361
#	120510
#	133090
#	144694
#	156832
#	168590
#	180180
#	193577
#	206092
#	217514
#	247386
#
# Disc length: 3770 seconds
#
# Revision: 4
# Processed by: cddbd v1.5.2PL0 Copyright (c) Steve Scherf et al.
# Submitted via: CDex 1.83
#
DISCID=e40eb811
DTITLE=Teddy Edwards - Complete Recordings 1947-1962 CD01
DYEAR=2017
DGENRE=Jazz
TTITLE0=Blues In Teddy's Flat
TTITLE1=The Duel
TTITLE2=Hornin' In
TTITLE3=Fairy Dance
TTITLE4=It's The Talk Of The Town
TTITLE5=Teddy's Tune
TTITLE6=Wonderful Work
TTITLE7=Rexology
TTITLE8=Three Bass Hit
TTITLE9=Body and Soul
TTITLE10=R.B.'s Wig
TTITLE11=Out Of Nowhere
TTITLE12=Bird Legs
TTITLE13=Steady With Teddy
TTITLE14=Roy's Boy
TTITLE15=Billie's Bounce
TTITLE16=A Foggy Day
EXTD=YEAR: 2017
EXTT0=
EXTT1=
EXTT2=
EXTT3=
EXTT4=
EXTT5=
EXTT6=
EXTT7=
EXTT8=
EXTT9=
EXTT10=
EXTT11=
EXTT12=
EXTT13=
EXTT14=
EXTT15=
EXTT16=
PLAYORDER=
